mtllib Venice_Facade_02.mtl
o Venice_Facade_02.obj
v -0.052920 1.000000 0.379814
v -0.052920 0.000000 0.379814
v -0.052920 0.000000 -0.379814
v -0.052920 1.000000 -0.379814
v -0.052920 0.809452 -0.150000
v -0.052920 0.809452 0.150000
v -0.052920 0.264170 -0.150000
v -0.052920 0.233892 -0.150000
v -0.052920 0.264170 0.150000
v -0.052920 0.233892 0.150000
v -0.052920 0.264170 0.379814
v -0.052920 0.264170 -0.379814
v -0.066967 0.264170 -0.150000
v -0.066967 0.264170 0.150000
v -0.066967 0.233892 -0.150000
v -0.066967 0.233892 0.150000
v -0.006777 0.809452 0.150000
v -0.006777 0.264170 0.150000
v -0.006777 0.809452 -0.150000
v -0.006777 0.264170 -0.150000
v -0.052920 1.012239 -0.379814
v -0.052920 1.012239 0.379814
v -0.064924 1.000000 -0.379814
v -0.064924 1.012239 -0.379814
v -0.064924 1.000000 0.379814
v -0.064924 1.012239 0.379814
vn -0.816497 -0.408248 0.408248
vn -1.000000 0.000000 0.000000
vn -1.000000 0.000000 0.000000
vn -0.816497 -0.408248 -0.408248
vn -0.816497 -0.408248 0.408248
vn -0.816497 -0.408248 -0.408248
vn -0.707107 0.707107 0.000000
vn -0.816497 -0.408248 -0.408248
vn -0.707107 0.707107 0.000000
vn -0.816497 -0.408248 0.408248
vn -1.000000 0.000000 0.000000
vn -1.000000 0.000000 0.000000
vn -0.577350 0.577350 -0.577350
vn -0.577350 0.577350 0.577350
vn -0.577350 -0.577350 -0.577350
vn -0.577350 -0.577350 0.577350
vn -0.577350 -0.577350 -0.577350
vn -0.577350 0.577350 -0.577350
vn -0.577350 -0.577350 0.577350
vn -0.577350 0.577350 0.577350
vn 0.000000 0.707107 -0.707107
vn 0.000000 0.707107 0.707107
vn -0.577350 -0.577350 -0.577350
vn -0.577350 0.577350 -0.577350
vn -0.577350 -0.577350 0.577350
vn -0.577350 0.577350 0.577350
vt 0.004950 0.434714
vt 0.004950 0.565286
vt 0.004950 0.747525
vt 0.004950 0.252475
vt 0.004950 0.747525
vt 0.004950 0.570079
vt 0.004950 0.429921
vt 0.004950 0.252475
vt 0.004950 0.570079
vt 0.004950 0.682238
vt 0.004950 0.429921
vt 0.004950 0.317762
vt 0.004950 0.429921
vt 0.004950 0.429921
vt 0.004950 0.570079
vt 0.004950 0.570079
vt 0.004950 0.429921
vt 0.004950 0.570079
vt 0.004950 0.565286
vt 0.004950 0.434714
vt 0.004950 0.252475
vt 0.004950 0.747525
vt 0.004950 0.747525
vt 0.004950 0.747525
vt 0.004950 0.252475
vt 0.004950 0.252475
g Cube
usemtl Default
f 10/1/10 8/2/8 3/3/3 2/4/2 
f 4/5/4 5/6/5 6/7/6 1/8/1 
f 8/2/8 7/9/7 12/10/12 3/3/3 
f 1/8/1 6/7/6 9/11/9 11/12/11 
f 18/13/18 17/14/17 19/15/19 20/16/20 
f 10/1/10 2/4/2 11/12/11 9/11/9 
f 14/17/14 13/18/13 15/19/15 16/20/16 
f 9/11/9 7/9/7 13/18/13 14/17/14 
f 7/9/7 8/2/8 15/19/15 13/18/13 
f 8/2/8 10/1/10 16/20/16 15/19/15 
f 10/1/10 9/11/9 14/17/14 16/20/16 
f 9/11/9 6/7/6 17/14/17 18/13/18 
f 6/7/6 5/6/5 19/15/19 17/14/17 
f 5/6/5 7/9/7 20/16/20 19/15/19 
f 7/9/7 9/11/9 18/13/18 20/16/20 
f 25/21/25 23/22/23 4/5/4 1/8/1 
f 21/23/21 24/24/24 26/25/26 22/26/22 
f 25/21/25 26/25/26 24/24/24 23/22/23 
f 25/21/25 1/8/1 22/26/22 26/25/26 
f 4/5/4 23/22/23 24/24/24 21/23/21 
f 7/9/7 5/6/5 4/5/4 12/10/12 
