mtllib Venice_Roof_03.mtl
o Venice_Roof_03.obj
v -1.074898 0.485415 -0.490339
v 1.074898 0.485415 -0.490339
v -1.096076 0.514585 -0.500000
v 1.096076 0.514585 -0.500000
v -1.074898 0.485415 0.490339
v 1.074898 0.485415 0.490339
v -1.096076 0.514585 0.500000
v 1.096076 0.514585 0.500000
v 1.096076 0.708968 0.000000
v -0.746892 0.708968 0.000000
vn -0.355782 -0.836196 -0.417366
vn 0.355782 -0.836196 -0.417366
vn -0.630993 0.440209 -0.638799
vn 0.809547 0.013484 -0.586901
vn -0.355782 -0.836196 0.417366
vn 0.355782 -0.836196 0.417366
vn -0.630993 0.440209 0.638799
vn 0.809547 0.013484 0.586901
vn 0.472729 0.881208 0.000000
vn -0.174917 0.984583 0.000000
vt 0.995049 0.995049
vt 0.995049 0.995049
vt 0.004950 0.995049
vt 0.004950 0.995049
vt 0.995049 0.004950
vt 0.995049 0.004950
vt 0.004950 0.004950
vt 0.004950 0.004950
vt 0.995049 0.500000
vt 0.004950 0.500000
g Cube
usemtl Default
f 4/1/4 2/2/2 1/3/1 3/4/3 
f 6/5/6 8/6/8 7/7/7 5/8/5 
f 6/5/6 5/8/5 1/3/1 2/2/2 
f 8/6/8 4/1/4 9/9/9 
f 7/7/7 8/6/8 9/9/9 10/10/10 
f 5/8/5 7/7/7 3/4/3 1/3/1 
f 9/9/9 4/1/4 3/4/3 10/10/10 
f 8/6/8 6/5/6 2/2/2 4/1/4 
f 7/7/7 10/10/10 3/4/3 
