mtllib Venice_Facade_03.mtl
o Venice_Facade_03.obj
v -0.052920 1.000000 0.379814
v -0.052920 0.000000 0.379814
v -0.052920 0.000000 -0.379814
v -0.052920 1.000000 -0.379814
v -0.052920 1.012239 -0.379814
v -0.052920 1.012239 0.379814
v -0.064924 1.000000 -0.379814
v -0.064924 1.012239 -0.379814
v -0.064924 1.000000 0.379814
v -0.064924 1.012239 0.379814
vn -0.577350 -0.577350 0.577350
vn -1.000000 0.000000 0.000000
vn -1.000000 0.000000 0.000000
vn -0.577350 -0.577350 -0.577350
vn 0.000000 0.707107 -0.707107
vn 0.000000 0.707107 0.707107
vn -0.577350 -0.577350 -0.577350
vn -0.577350 0.577350 -0.577350
vn -0.577350 -0.577350 0.577350
vn -0.577350 0.577350 0.577350
vt 0.004950 0.252475
vt 0.004950 0.747525
vt 0.004950 0.747525
vt 0.004950 0.252475
vt 0.004950 0.747525
vt 0.004950 0.747525
vt 0.004950 0.252475
vt 0.004950 0.252475
vt 0.004950 0.747525
vt 0.004950 0.252475
g Cube
usemtl Default
f 9/1/9 7/2/7 4/3/4 1/4/1 
f 5/5/5 8/6/8 10/7/10 6/8/6 
f 9/1/9 10/7/10 8/6/8 7/2/7 
f 9/1/9 1/4/1 6/8/6 10/7/10 
f 4/3/4 7/2/7 8/6/8 5/5/5 
f 1/4/1 4/3/4 3/9/3 2/10/2 
